# xmcd
#
# Track frame offsets: 
#        150
#        19252
#        41320
#        63710
#
# Disc length: 1104 seconds
#
# Revision: 1
# Processed by: cddbd v1.5.2PL0 Copyright (c) Steve Scherf et al.
# Submitted via: ExactAudioCopy v1.0b3
#
DISCID=2e044e04
DTITLE=北出菜奈 - 消せない罪
DYEAR=2003
DGENRE=JPop
TTITLE0=消せない罪
TTITLE1=瞬間
TTITLE2=遺留品
TTITLE3=消せない罪(Instrumental)
EXTD=YEAR: 2003
EXTT0=
EXTT1=
EXTT2=
EXTT3=
PLAYORDER=
